<?xml version="1.0" encoding="UTF-8" standalone="no"?>
<svg xmlns="http://www.w3.org/2000/svg" width="200" height="200" viewBox="0 0 200 200">
  <style>
    @keyframes rotate {
      0% { transform: rotate(0deg); }
      100% { transform: rotate(360deg); }
    }
    @keyframes pulse {
      0% { opacity: 0.3; }
      50% { opacity: 1; }
      100% { opacity: 0.3; }
    }
    .spinner {
      transform-origin: center;
      animation: rotate 2s linear infinite;
    }
    .dot {
      animation: pulse 1.5s ease-in-out infinite;
    }
    .dot1 { animation-delay: 0s; }
    .dot2 { animation-delay: 0.2s; }
    .dot3 { animation-delay: 0.4s; }
    .dot4 { animation-delay: 0.6s; }
    .dot5 { animation-delay: 0.8s; }
    .dot6 { animation-delay: 1.0s; }
    .dot7 { animation-delay: 1.2s; }
    .dot8 { animation-delay: 1.4s; }
  </style>
  
  <!-- Outer circle -->
  <circle cx="100" cy="100" r="90" fill="none" stroke="#3498db" stroke-width="10" stroke-opacity="0.2" />
  
  <!-- Spinner -->
  <g class="spinner">
    <path d="M 100,10 A 90,90 0 0,1 190,100" fill="none" stroke="#3498db" stroke-width="10" stroke-linecap="round" />
  </g>
  
  <!-- Loading dots -->
  <g>
    <circle class="dot dot1" cx="100" cy="160" r="8" fill="#ecf0f1" />
    <circle class="dot dot2" cx="130" cy="150" r="8" fill="#ecf0f1" />
    <circle class="dot dot3" cx="150" cy="130" r="8" fill="#ecf0f1" />
    <circle class="dot dot4" cx="160" cy="100" r="8" fill="#ecf0f1" />
    <circle class="dot dot5" cx="150" cy="70" r="8" fill="#ecf0f1" />
    <circle class="dot dot6" cx="130" cy="50" r="8" fill="#ecf0f1" />
    <circle class="dot dot7" cx="100" cy="40" r="8" fill="#ecf0f1" />
    <circle class="dot dot8" cx="70" cy="50" r="8" fill="#ecf0f1" />
  </g>
  
  <!-- Center logo -->
  <g transform="translate(100, 100) scale(0.4)">
    <!-- Hand outline -->
    <path d="M -50,120 C -70,100 -80,80 -80,40 C -80,0 -70,-20 -50,-40 C -30,-60 -10,-70 20,-70 C 50,-70 70,-60 90,-40 C 110,-20 120,0 120,40 C 120,80 110,100 90,120 C 70,140 50,150 20,150 C -10,150 -30,140 -50,120 Z" 
          fill="#3498db" stroke="#ecf0f1" stroke-width="8" />
    
    <!-- Fingers -->
    <path d="M -20,-20 C -20,-40 -10,-50 0,-50 C 10,-50 20,-40 20,-20 L 20,60 C 20,70 10,80 0,80 C -10,80 -20,70 -20,60 Z" 
          fill="#ecf0f1" />
    <path d="M 30,-20 C 30,-40 40,-50 50,-50 C 60,-50 70,-40 70,-20 L 70,40 C 70,50 60,60 50,60 C 40,60 30,50 30,40 Z" 
          fill="#ecf0f1" />
    <path d="M -50,0 C -50,-20 -40,-30 -30,-30 C -20,-30 -10,-20 -10,0 L -10,40 C -10,50 -20,60 -30,60 C -40,60 -50,50 -50,40 Z" 
          fill="#ecf0f1" />
  </g>
</svg>