<?xml version="1.0" encoding="UTF-8" standalone="no"?>
<svg xmlns="http://www.w3.org/2000/svg" width="400" height="400" viewBox="0 0 400 400">
  <!-- Background circle -->
  <circle cx="200" cy="200" r="190" fill="#2c3e50" />
  
  <!-- Hand outline -->
  <path d="M 150,320 C 130,300 120,280 120,240 C 120,200 130,180 150,160 C 170,140 190,130 220,130 C 250,130 270,140 290,160 C 310,180 320,200 320,240 C 320,280 310,300 290,320 C 270,340 250,350 220,350 C 190,350 170,340 150,320 Z" 
        fill="#3498db" stroke="#ecf0f1" stroke-width="8" />
  
  <!-- Fingers -->
  <path d="M 180,180 C 180,160 190,150 200,150 C 210,150 220,160 220,180 L 220,260 C 220,270 210,280 200,280 C 190,280 180,270 180,260 Z" 
        fill="#ecf0f1" />
  <path d="M 230,180 C 230,160 240,150 250,150 C 260,150 270,160 270,180 L 270,240 C 270,250 260,260 250,260 C 240,260 230,250 230,240 Z" 
        fill="#ecf0f1" />
  <path d="M 150,200 C 150,180 160,170 170,170 C 180,170 190,180 190,200 L 190,240 C 190,250 180,260 170,260 C 160,260 150,250 150,240 Z" 
        fill="#ecf0f1" />
  
  <!-- Face outline -->
  <circle cx="200" cy="200" r="40" fill="#e74c3c" stroke="#ecf0f1" stroke-width="4" />
  
  <!-- Eyes -->
  <circle cx="185" cy="190" r="5" fill="#ecf0f1" />
  <circle cx="215" cy="190" r="5" fill="#ecf0f1" />
  
  <!-- Smile -->
  <path d="M 180,210 C 190,220 210,220 220,210" fill="none" stroke="#ecf0f1" stroke-width="3" stroke-linecap="round" />
  
  <!-- Text -->
  <text x="200" y="380" font-family="Arial, sans-serif" font-size="24" font-weight="bold" text-anchor="middle" fill="#ecf0f1">ASL Translator</text>
</svg>